<?xml version="1.0" encoding="utf-8"?>
<!-- Generator: Adobe Illustrator 25.3.1, SVG Export Plug-In . SVG Version: 6.00 Build 0)  -->
<svg version="1.1" id="Layer_1" xmlns="http://www.w3.org/2000/svg" xmlns:xlink="http://www.w3.org/1999/xlink" x="0px" y="0px"
	 viewBox="0 0 432.1 116.1" style="enable-background:new 0 0 432.1 116.1;" xml:space="preserve">
<style type="text/css">
	.st0{fill:#FF0000;}
</style>
<g>
	<path class="st0" d="M59.3,0C53.4,0,47,0,41.1,0c0,24.7-0.1,40.7-0.1,65.5C33.2,41.4,25.4,25.4,17.5,0C10.8,0,6.7,0,0,0
		c0,38.6,0,77.3,0,115.9c5.9-0.8,12.2-1.6,18.1-2.4c0-24.2,0-39.1,0.1-63.4C26.3,74,31.3,88,39.4,110.7c6.3-0.7,13.3-1.6,19.7-2.3
		C59.2,72.4,59.3,36.2,59.3,0"/>
	<path class="st0" d="M127.3,0c-16.9,0-33.5,0-50.4,0c-0.1,35.7-0.1,71.3-0.2,107c16.9-1.5,33.7-2.8,50.6-3.8c0-5.2,0-12.7,0-17.9
		c-11,0.7-21.5,1.4-32.4,2.1c0-9.6,0-17.5,0.1-27.1c8-0.1,16.4,0,24.6-0.2c0-5.2,0-12.8,0-18c-8.1,0.1-16.6,0.2-24.6,0.3
		c0-9.6,0-14.8,0.1-24.4c5-0.1,9.9-0.1,14.8-0.1c0.9,0,1.7,0,2.6,0c0.9,0,1.7,0,2.6,0c4.1,0,8.2,0,12.4,0
		C127.4,12.7,127.3,5.2,127.3,0"/>
	<path class="st0" d="M195.2,0.1c-18.5,0-37.6,0-56.1,0c0,5.2,0,12.6,0,17.8c0.8,0,1.6,0,2.4,0c2.4,0,4.9,0,7.3,0s4.9,0,7.3,0
		c0.6,0,1.2,0,1.9,0c0,28.7-0.1,55-0.1,83.7c5.9-0.2,12.3-0.4,18.2-0.6c0-28.6,0.1-54.7,0.1-83.3c6.3,0,12.7,0,19-0.1
		C195.2,12.8,195.2,5.2,195.2,0.1"/>
	<path class="st0" d="M257.6,0c-16.9,0-33.7,0-50.6,0c0,33.6,0,67.1,0,100.7c2,0,3.9,0,5.9,0c4,0,8.1,0,12.1,0c0-14.2,0-27.2,0-41.5
		c1,0,2,0,3,0c2.4,0,4.7,0,7.1,0s4.8,0,7.2,0c2.5,0,4.9,0,7.3,0c0-5.1,0-12.7,0-17.8c-2.3,0-4.6,0-6.9,0c-2.5,0-5,0-7.5,0
		s-5,0-7.4,0c-0.9,0-1.9,0-2.8,0c0-9.2,0-14.3,0-23.5c2,0,4,0,5.9,0c2,0,4,0,6,0s4,0,6,0c4.9,0,9.8,0,14.7,0
		C257.6,12.9,257.6,5.2,257.6,0"/>
	<path class="st0" d="M269.4,0.1c0,33.9-0.1,67.8-0.1,101.6c16.2,0.6,33.2,1.3,49.3,2.4c0-5.2,0-12.7,0-17.9
		c-10.2-0.6-20.9-1.3-31.1-1.7c0-29,0.1-55.3,0.1-84.4C281.6,0.1,275.3,0.1,269.4,0.1"/>
	<path class="st0" d="M333.5,0.1c0.1,35,0.1,70.1,0.2,105.1c5.9,0.5,12.1,0.9,18,1.5c0-35.5,0.1-71.1,0-106.6
		C345.8,0.1,339.5,0.1,333.5,0.1"/>
	<path class="st0" d="M367.3,0.1c7.3,17.7,13.9,35.5,21.3,54.3c-7.7,18.1-15.5,36-23.2,53.4c6.4,0.6,12.9,1.5,19.3,2.3
		c4.6-11.2,8.7-19.8,13.3-31.2c4.5,12.2,8.7,21.7,13.2,34.3c6.3,0.8,14.5,2,20.9,2.9c-7.7-20.5-16.1-41.9-23.8-61.2
		c7.7-18.2,15.5-35.6,23.5-54.6c-6.6,0-13.3,0-19.9,0c-4.9,11.8-8.3,19.3-13,30.5c-4.4-11.6-7.3-19.2-11.8-30.5
		C380.6,0.1,373.9,0.1,367.3,0.1"/>
</g>
</svg>
